<svg id="Layer_1" data-name="Layer 1" xmlns="http://www.w3.org/2000/svg" viewBox="0 0 63 50" width="65px" height="65px">
	<defs>
		<style>
			.cls-1{
				fill:none;
				stroke:#7735f7;
				stroke-miterlimit:10;
				stroke-width:1px;
				stroke-dasharray: 192;
				stroke-dashoffset: 190;
				animation: line 2s linear forwards;
			}
			@keyframes line {
				from {
					stroke-dashoffset: 192;
				}
				to {
					stroke-dashoffset: 0;
				}
			}
		</style>
	</defs>
	<title>icon-02</title>
	<path class="cls-1" d="M14.74,16.66C18.61,1.83,33.44,3.77,33.44,3.77m9,32.88c-7.09,4.51-11.6,1.93-11.6,1.93-5.8-4.51-2.58-8.38-2.58-8.38,1.93-3.22-.64-4.51-.64-4.51a2,2,0,0,1-1.29-2.58,2,2,0,0,0-1.29-2.58,1.41,1.41,0,0,0-1.93.64,9.06,9.06,0,0,1-2.58,2.58,2.49,2.49,0,0,1-3.22,0C16,22.46,18,19.88,18,19.88,19.25,18,16.68,18,16.68,18c-2.58,0-2.58,1.93-2.58,1.93-.64,15.47,13.54,19.34,13.54,19.34M48.91,20.53C48.91,9.57,36,3.77,36,3.77,33.44,4.41,36,7,36,7c1.93,2.58-.64,3.87-.64,3.87C30.86,13.44,34.08,16,34.08,16c3.22,2.58,3.87-.64,3.87-.64.64-2.58,2.58-1.29,2.58-1.29,3.22,3.22,7.74,1.29,7.74,1.29M43.11,36c6.45-5.16,5.8-14.83,5.8-14.83M22.48,40.51a25,25,0,0,0,6.45,1.93v3.87h3.22V42.45a17.41,17.41,0,0,0,7.74-1.93"/>
</svg>